<mxfile host="Electron" modified="2024-02-27T22:16:30.791Z" agent="Mozilla/5.0 (Macintosh; Intel Mac OS X 10_15_7) AppleWebKit/537.36 (KHTML, like Gecko) draw.io/23.1.5 Chrome/120.0.6099.109 Electron/28.1.0 Safari/537.36" etag="7qKFn-Z6xbMDBAfca5Hq" version="23.1.5" type="device">
  <diagram name="Page-1" id="a8_PhJwDGyZRb4poQ8xm">
    <mxGraphModel dx="2009" dy="937" grid="1" gridSize="10" guides="1" tooltips="1" connect="1" arrows="1" fold="1" page="1" pageScale="1" pageWidth="850" pageHeight="1100" background="none" math="0" shadow="0">
      <root>
        <mxCell id="0" />
        <mxCell id="1" parent="0" />
        <mxCell id="ZGrB_38wMBr9Ecal8B5S-1" value="AWS Cloud" style="points=[[0,0],[0.25,0],[0.5,0],[0.75,0],[1,0],[1,0.25],[1,0.5],[1,0.75],[1,1],[0.75,1],[0.5,1],[0.25,1],[0,1],[0,0.75],[0,0.5],[0,0.25]];outlineConnect=0;gradientColor=none;html=1;whiteSpace=wrap;fontSize=12;fontStyle=0;container=1;pointerEvents=0;collapsible=0;recursiveResize=0;shape=mxgraph.aws4.group;grIcon=mxgraph.aws4.group_aws_cloud_alt;strokeColor=#FFFFFF;fillColor=none;verticalAlign=top;align=left;spacingLeft=30;fontColor=#FFFFFF;dashed=0;" vertex="1" parent="1">
          <mxGeometry x="440" y="150" width="455" height="455" as="geometry" />
        </mxCell>
        <mxCell id="ZGrB_38wMBr9Ecal8B5S-3" value="&lt;font color=&quot;#ffffff&quot;&gt;Amazon&lt;br&gt;S3&lt;/font&gt;" style="sketch=0;points=[[0,0,0],[0.25,0,0],[0.5,0,0],[0.75,0,0],[1,0,0],[0,1,0],[0.25,1,0],[0.5,1,0],[0.75,1,0],[1,1,0],[0,0.25,0],[0,0.5,0],[0,0.75,0],[1,0.25,0],[1,0.5,0],[1,0.75,0]];outlineConnect=0;fontColor=#232F3E;fillColor=#7AA116;strokeColor=#ffffff;dashed=0;verticalLabelPosition=top;verticalAlign=bottom;align=center;html=1;fontSize=12;fontStyle=0;aspect=fixed;shape=mxgraph.aws4.resourceIcon;resIcon=mxgraph.aws4.s3;labelPosition=center;" vertex="1" parent="ZGrB_38wMBr9Ecal8B5S-1">
          <mxGeometry x="360" y="172.5" width="50" height="50" as="geometry" />
        </mxCell>
        <mxCell id="ZGrB_38wMBr9Ecal8B5S-4" value="Amazon &lt;br&gt;Route 53" style="sketch=0;points=[[0,0,0],[0.25,0,0],[0.5,0,0],[0.75,0,0],[1,0,0],[0,1,0],[0.25,1,0],[0.5,1,0],[0.75,1,0],[1,1,0],[0,0.25,0],[0,0.5,0],[0,0.75,0],[1,0.25,0],[1,0.5,0],[1,0.75,0]];outlineConnect=0;fontColor=#FFFFFF;fillColor=#8C4FFF;strokeColor=#ffffff;dashed=0;verticalLabelPosition=bottom;verticalAlign=top;align=center;html=1;fontSize=12;fontStyle=0;aspect=fixed;shape=mxgraph.aws4.resourceIcon;resIcon=mxgraph.aws4.route_53;" vertex="1" parent="ZGrB_38wMBr9Ecal8B5S-1">
          <mxGeometry x="40" y="172.5" width="50" height="50" as="geometry" />
        </mxCell>
        <mxCell id="ZGrB_38wMBr9Ecal8B5S-24" value="TLS/SSL" style="edgeStyle=orthogonalEdgeStyle;rounded=0;orthogonalLoop=1;jettySize=auto;html=1;" edge="1" parent="ZGrB_38wMBr9Ecal8B5S-1" source="ZGrB_38wMBr9Ecal8B5S-7" target="ZGrB_38wMBr9Ecal8B5S-18">
          <mxGeometry relative="1" as="geometry" />
        </mxCell>
        <mxCell id="ZGrB_38wMBr9Ecal8B5S-25" value="Static Website&lt;br&gt;files" style="edgeStyle=orthogonalEdgeStyle;rounded=0;orthogonalLoop=1;jettySize=auto;html=1;" edge="1" parent="ZGrB_38wMBr9Ecal8B5S-1" source="ZGrB_38wMBr9Ecal8B5S-7" target="ZGrB_38wMBr9Ecal8B5S-3">
          <mxGeometry x="0.0047" relative="1" as="geometry">
            <mxPoint as="offset" />
          </mxGeometry>
        </mxCell>
        <mxCell id="ZGrB_38wMBr9Ecal8B5S-7" value="Amazon&lt;br&gt;&amp;nbsp;CloudfFront" style="sketch=0;points=[[0,0,0],[0.25,0,0],[0.5,0,0],[0.75,0,0],[1,0,0],[0,1,0],[0.25,1,0],[0.5,1,0],[0.75,1,0],[1,1,0],[0,0.25,0],[0,0.5,0],[0,0.75,0],[1,0.25,0],[1,0.5,0],[1,0.75,0]];outlineConnect=0;fontColor=#FFFFFF;fillColor=#8C4FFF;strokeColor=#ffffff;dashed=0;verticalLabelPosition=bottom;verticalAlign=top;align=center;html=1;fontSize=12;fontStyle=0;aspect=fixed;shape=mxgraph.aws4.resourceIcon;resIcon=mxgraph.aws4.cloudfront;" vertex="1" parent="ZGrB_38wMBr9Ecal8B5S-1">
          <mxGeometry x="202.5" y="172.5" width="50" height="50" as="geometry" />
        </mxCell>
        <mxCell id="ZGrB_38wMBr9Ecal8B5S-18" value="&lt;font color=&quot;#ffffff&quot;&gt;AWS&lt;br&gt;Certificate&lt;br&gt;Manager&lt;br&gt;&lt;/font&gt;" style="sketch=0;points=[[0,0,0],[0.25,0,0],[0.5,0,0],[0.75,0,0],[1,0,0],[0,1,0],[0.25,1,0],[0.5,1,0],[0.75,1,0],[1,1,0],[0,0.25,0],[0,0.5,0],[0,0.75,0],[1,0.25,0],[1,0.5,0],[1,0.75,0]];outlineConnect=0;fontColor=#232F3E;fillColor=#DD344C;strokeColor=#ffffff;dashed=0;verticalLabelPosition=top;verticalAlign=bottom;align=center;html=1;fontSize=12;fontStyle=0;aspect=fixed;shape=mxgraph.aws4.resourceIcon;resIcon=mxgraph.aws4.certificate_manager_3;labelPosition=center;" vertex="1" parent="ZGrB_38wMBr9Ecal8B5S-1">
          <mxGeometry x="202.5" y="60" width="50" height="50" as="geometry" />
        </mxCell>
        <mxCell id="ZGrB_38wMBr9Ecal8B5S-22" value="DNS Record" style="edgeStyle=orthogonalEdgeStyle;rounded=0;orthogonalLoop=1;jettySize=auto;html=1;entryX=0;entryY=0.5;entryDx=0;entryDy=0;entryPerimeter=0;" edge="1" parent="ZGrB_38wMBr9Ecal8B5S-1" source="ZGrB_38wMBr9Ecal8B5S-4" target="ZGrB_38wMBr9Ecal8B5S-7">
          <mxGeometry relative="1" as="geometry" />
        </mxCell>
        <mxCell id="ZGrB_38wMBr9Ecal8B5S-30" value="" style="group" vertex="1" connectable="0" parent="ZGrB_38wMBr9Ecal8B5S-1">
          <mxGeometry x="70" y="290" width="300" height="130" as="geometry" />
        </mxCell>
        <mxCell id="ZGrB_38wMBr9Ecal8B5S-29" value="&lt;font color=&quot;#ffffff&quot;&gt;Backend&lt;/font&gt;" style="fillColor=none;strokeColor=#DEDEDE;dashed=1;verticalAlign=top;fontStyle=0;fontColor=#5A6C86;whiteSpace=wrap;html=1;" vertex="1" parent="ZGrB_38wMBr9Ecal8B5S-30">
          <mxGeometry width="300" height="130" as="geometry" />
        </mxCell>
        <mxCell id="ZGrB_38wMBr9Ecal8B5S-2" value="&lt;font color=&quot;#ffffff&quot;&gt;AWS Lambda&lt;/font&gt;" style="sketch=0;points=[[0,0,0],[0.25,0,0],[0.5,0,0],[0.75,0,0],[1,0,0],[0,1,0],[0.25,1,0],[0.5,1,0],[0.75,1,0],[1,1,0],[0,0.25,0],[0,0.5,0],[0,0.75,0],[1,0.25,0],[1,0.5,0],[1,0.75,0]];outlineConnect=0;fontColor=#232F3E;fillColor=#ED7100;strokeColor=#ffffff;dashed=0;verticalLabelPosition=bottom;verticalAlign=top;align=center;html=1;fontSize=12;fontStyle=0;aspect=fixed;shape=mxgraph.aws4.resourceIcon;resIcon=mxgraph.aws4.lambda;" vertex="1" parent="ZGrB_38wMBr9Ecal8B5S-30">
          <mxGeometry x="210" y="30" width="50" height="50" as="geometry" />
        </mxCell>
        <mxCell id="ZGrB_38wMBr9Ecal8B5S-5" value="&lt;font color=&quot;#ffffff&quot;&gt;AWS&lt;br&gt;DynamoDB&lt;br&gt;&lt;/font&gt;" style="sketch=0;points=[[0,0,0],[0.25,0,0],[0.5,0,0],[0.75,0,0],[1,0,0],[0,1,0],[0.25,1,0],[0.5,1,0],[0.75,1,0],[1,1,0],[0,0.25,0],[0,0.5,0],[0,0.75,0],[1,0.25,0],[1,0.5,0],[1,0.75,0]];outlineConnect=0;fontColor=#232F3E;fillColor=#C925D1;strokeColor=#ffffff;dashed=0;verticalLabelPosition=bottom;verticalAlign=top;align=center;html=1;fontSize=12;fontStyle=0;aspect=fixed;shape=mxgraph.aws4.resourceIcon;resIcon=mxgraph.aws4.dynamodb;" vertex="1" parent="ZGrB_38wMBr9Ecal8B5S-30">
          <mxGeometry x="40" y="30" width="50" height="50" as="geometry" />
        </mxCell>
        <mxCell id="ZGrB_38wMBr9Ecal8B5S-35" value="Vistors count" style="edgeStyle=orthogonalEdgeStyle;rounded=0;orthogonalLoop=1;jettySize=auto;html=1;entryX=1;entryY=0.5;entryDx=0;entryDy=0;entryPerimeter=0;" edge="1" parent="ZGrB_38wMBr9Ecal8B5S-30" source="ZGrB_38wMBr9Ecal8B5S-2" target="ZGrB_38wMBr9Ecal8B5S-5">
          <mxGeometry relative="1" as="geometry" />
        </mxCell>
        <mxCell id="ZGrB_38wMBr9Ecal8B5S-33" style="edgeStyle=orthogonalEdgeStyle;rounded=0;orthogonalLoop=1;jettySize=auto;html=1;exitX=0.5;exitY=1;exitDx=0;exitDy=0;exitPerimeter=0;entryX=1;entryY=0.5;entryDx=0;entryDy=0;entryPerimeter=0;" edge="1" parent="ZGrB_38wMBr9Ecal8B5S-1" source="ZGrB_38wMBr9Ecal8B5S-3" target="ZGrB_38wMBr9Ecal8B5S-2">
          <mxGeometry relative="1" as="geometry" />
        </mxCell>
        <mxCell id="ZGrB_38wMBr9Ecal8B5S-34" value="Counter function" style="edgeLabel;html=1;align=center;verticalAlign=middle;resizable=0;points=[];" vertex="1" connectable="0" parent="ZGrB_38wMBr9Ecal8B5S-33">
          <mxGeometry x="-0.4423" y="2" relative="1" as="geometry">
            <mxPoint y="1" as="offset" />
          </mxGeometry>
        </mxCell>
        <mxCell id="ZGrB_38wMBr9Ecal8B5S-17" value="Request" style="edgeStyle=orthogonalEdgeStyle;rounded=0;orthogonalLoop=1;jettySize=auto;html=1;" edge="1" parent="1" source="ZGrB_38wMBr9Ecal8B5S-15" target="ZGrB_38wMBr9Ecal8B5S-16">
          <mxGeometry relative="1" as="geometry" />
        </mxCell>
        <mxCell id="ZGrB_38wMBr9Ecal8B5S-15" value="Users" style="sketch=0;outlineConnect=0;gradientColor=none;fontColor=#FFFFFF;strokeColor=none;fillColor=#FFFFFF;dashed=0;verticalLabelPosition=bottom;verticalAlign=top;align=center;html=1;fontSize=12;fontStyle=0;aspect=fixed;shape=mxgraph.aws4.illustration_users;pointerEvents=1" vertex="1" parent="1">
          <mxGeometry x="90" y="325" width="45" height="45" as="geometry" />
        </mxCell>
        <mxCell id="ZGrB_38wMBr9Ecal8B5S-14" value="" style="shape=image;verticalLabelPosition=bottom;verticalAlign=top;imageAspect=0;image=data:image/svg+xml,PHN2ZyB4bWxuczp4bGluaz0iaHR0cDovL3d3dy53My5vcmcvMTk5OS94bGluayIgeG1sbnM9Imh0dHA6Ly93d3cudzMub3JnLzIwMDAvc3ZnIiB4bWw6c3BhY2U9InByZXNlcnZlIiBzdHlsZT0iZW5hYmxlLWJhY2tncm91bmQ6bmV3IDAgMCAzMDQgMTgyOyIgdmlld0JveD0iMCAwIDMwNCAxODIiIHk9IjBweCIgeD0iMHB4IiBpZD0iTGF5ZXJfMSIgdmVyc2lvbj0iMS4xIj4mI3hhOzxzdHlsZSB0eXBlPSJ0ZXh0L2NzcyI+JiN4YTsJLnN0MHtmaWxsOiNGRkZGRkY7fSYjeGE7CS5zdDF7ZmlsbC1ydWxlOmV2ZW5vZGQ7Y2xpcC1ydWxlOmV2ZW5vZGQ7ZmlsbDojRkY5OTAwO30mI3hhOzwvc3R5bGU+JiN4YTs8Zz4mI3hhOwk8cGF0aCBkPSJNODYuNCw2Ni40YzAsMy43LDAuNCw2LjcsMS4xLDguOWMwLjgsMi4yLDEuOCw0LjYsMy4yLDcuMmMwLjUsMC44LDAuNywxLjYsMC43LDIuM2MwLDEtMC42LDItMS45LDNsLTYuMyw0LjIgICBjLTAuOSwwLjYtMS44LDAuOS0yLjYsMC45Yy0xLDAtMi0wLjUtMy0xLjRDNzYuMiw5MCw3NSw4OC40LDc0LDg2LjhjLTEtMS43LTItMy42LTMuMS01LjljLTcuOCw5LjItMTcuNiwxMy44LTI5LjQsMTMuOCAgIGMtOC40LDAtMTUuMS0yLjQtMjAtNy4yYy00LjktNC44LTcuNC0xMS4yLTcuNC0xOS4yYzAtOC41LDMtMTUuNCw5LjEtMjAuNmM2LjEtNS4yLDE0LjItNy44LDI0LjUtNy44YzMuNCwwLDYuOSwwLjMsMTAuNiwwLjggICBjMy43LDAuNSw3LjUsMS4zLDExLjUsMi4ydi03LjNjMC03LjYtMS42LTEyLjktNC43LTE2Yy0zLjItMy4xLTguNi00LjYtMTYuMy00LjZjLTMuNSwwLTcuMSwwLjQtMTAuOCwxLjNjLTMuNywwLjktNy4zLDItMTAuOCwzLjQgICBjLTEuNiwwLjctMi44LDEuMS0zLjUsMS4zYy0wLjcsMC4yLTEuMiwwLjMtMS42LDAuM2MtMS40LDAtMi4xLTEtMi4xLTMuMXYtNC45YzAtMS42LDAuMi0yLjgsMC43LTMuNWMwLjUtMC43LDEuNC0xLjQsMi44LTIuMSAgIGMzLjUtMS44LDcuNy0zLjMsMTIuNi00LjVjNC45LTEuMywxMC4xLTEuOSwxNS42LTEuOWMxMS45LDAsMjAuNiwyLjcsMjYuMiw4LjFjNS41LDUuNCw4LjMsMTMuNiw4LjMsMjQuNlY2Ni40eiBNNDUuOCw4MS42ICAgYzMuMywwLDYuNy0wLjYsMTAuMy0xLjhjMy42LTEuMiw2LjgtMy40LDkuNS02LjRjMS42LTEuOSwyLjgtNCwzLjQtNi40YzAuNi0yLjQsMS01LjMsMS04Ljd2LTQuMmMtMi45LTAuNy02LTEuMy05LjItMS43ICAgYy0zLjItMC40LTYuMy0wLjYtOS40LTAuNmMtNi43LDAtMTEuNiwxLjMtMTQuOSw0Yy0zLjMsMi43LTQuOSw2LjUtNC45LDExLjVjMCw0LjcsMS4yLDguMiwzLjcsMTAuNiAgIEMzNy43LDgwLjQsNDEuMiw4MS42LDQ1LjgsODEuNnogTTEyNi4xLDkyLjRjLTEuOCwwLTMtMC4zLTMuOC0xYy0wLjgtMC42LTEuNS0yLTIuMS0zLjlMOTYuNywxMC4yYy0wLjYtMi0wLjktMy4zLTAuOS00ICAgYzAtMS42LDAuOC0yLjUsMi40LTIuNWg5LjhjMS45LDAsMy4yLDAuMywzLjksMWMwLjgsMC42LDEuNCwyLDIsMy45bDE2LjgsNjYuMmwxNS42LTY2LjJjMC41LTIsMS4xLTMuMywxLjktMy45YzAuOC0wLjYsMi4yLTEsNC0xICAgaDhjMS45LDAsMy4yLDAuMyw0LDFjMC44LDAuNiwxLjUsMiwxLjksMy45bDE1LjgsNjdsMTcuMy02N2MwLjYtMiwxLjMtMy4zLDItMy45YzAuOC0wLjYsMi4xLTEsMy45LTFoOS4zYzEuNiwwLDIuNSwwLjgsMi41LDIuNSAgIGMwLDAuNS0wLjEsMS0wLjIsMS42Yy0wLjEsMC42LTAuMywxLjQtMC43LDIuNWwtMjQuMSw3Ny4zYy0wLjYsMi0xLjMsMy4zLTIuMSwzLjljLTAuOCwwLjYtMi4xLDEtMy44LDFoLTguNmMtMS45LDAtMy4yLTAuMy00LTEgICBjLTAuOC0wLjctMS41LTItMS45LTRMMTU2LDIzbC0xNS40LDY0LjRjLTAuNSwyLTEuMSwzLjMtMS45LDRjLTAuOCwwLjctMi4yLDEtNCwxSDEyNi4xeiBNMjU0LjYsOTUuMWMtNS4yLDAtMTAuNC0wLjYtMTUuNC0xLjggICBjLTUtMS4yLTguOS0yLjUtMTEuNS00Yy0xLjYtMC45LTIuNy0xLjktMy4xLTIuOGMtMC40LTAuOS0wLjYtMS45LTAuNi0yLjh2LTUuMWMwLTIuMSwwLjgtMy4xLDIuMy0zLjFjMC42LDAsMS4yLDAuMSwxLjgsMC4zICAgYzAuNiwwLjIsMS41LDAuNiwyLjUsMWMzLjQsMS41LDcuMSwyLjcsMTEsMy41YzQsMC44LDcuOSwxLjIsMTEuOSwxLjJjNi4zLDAsMTEuMi0xLjEsMTQuNi0zLjNjMy40LTIuMiw1LjItNS40LDUuMi05LjUgICBjMC0yLjgtMC45LTUuMS0yLjctN2MtMS44LTEuOS01LjItMy42LTEwLjEtNS4yTDI0Niw1MmMtNy4zLTIuMy0xMi43LTUuNy0xNi0xMC4yYy0zLjMtNC40LTUtOS4zLTUtMTQuNWMwLTQuMiwwLjktNy45LDIuNy0xMS4xICAgYzEuOC0zLjIsNC4yLTYsNy4yLTguMmMzLTIuMyw2LjQtNCwxMC40LTUuMmM0LTEuMiw4LjItMS43LDEyLjYtMS43YzIuMiwwLDQuNSwwLjEsNi43LDAuNGMyLjMsMC4zLDQuNCwwLjcsNi41LDEuMSAgIGMyLDAuNSwzLjksMSw1LjcsMS42YzEuOCwwLjYsMy4yLDEuMiw0LjIsMS44YzEuNCwwLjgsMi40LDEuNiwzLDIuNWMwLjYsMC44LDAuOSwxLjksMC45LDMuM3Y0LjdjMCwyLjEtMC44LDMuMi0yLjMsMy4yICAgYy0wLjgsMC0yLjEtMC40LTMuOC0xLjJjLTUuNy0yLjYtMTIuMS0zLjktMTkuMi0zLjljLTUuNywwLTEwLjIsMC45LTEzLjMsMi44Yy0zLjEsMS45LTQuNyw0LjgtNC43LDguOWMwLDIuOCwxLDUuMiwzLDcuMSAgIGMyLDEuOSw1LjcsMy44LDExLDUuNWwxNC4yLDQuNWM3LjIsMi4zLDEyLjQsNS41LDE1LjUsOS42YzMuMSw0LjEsNC42LDguOCw0LjYsMTRjMCw0LjMtMC45LDguMi0yLjYsMTEuNiAgIGMtMS44LDMuNC00LjIsNi40LTcuMyw4LjhjLTMuMSwyLjUtNi44LDQuMy0xMS4xLDUuNkMyNjQuNCw5NC40LDI1OS43LDk1LjEsMjU0LjYsOTUuMXoiIGNsYXNzPSJzdDAiLz4mI3hhOwk8Zz4mI3hhOwkJPHBhdGggZD0iTTI3My41LDE0My43Yy0zMi45LDI0LjMtODAuNywzNy4yLTEyMS44LDM3LjJjLTU3LjYsMC0xMDkuNS0yMS4zLTE0OC43LTU2LjdjLTMuMS0yLjgtMC4zLTYuNiwzLjQtNC40ICAgIGM0Mi40LDI0LjYsOTQuNywzOS41LDE0OC44LDM5LjVjMzYuNSwwLDc2LjYtNy42LDExMy41LTIzLjJDMjc0LjIsMTMzLjYsMjc4LjksMTM5LjcsMjczLjUsMTQzLjd6IiBjbGFzcz0ic3QxIi8+JiN4YTsJCTxwYXRoIGQ9Ik0yODcuMiwxMjguMWMtNC4yLTUuNC0yNy44LTIuNi0zOC41LTEuM2MtMy4yLDAuNC0zLjctMi40LTAuOC00LjVjMTguOC0xMy4yLDQ5LjctOS40LDUzLjMtNSAgICBjMy42LDQuNS0xLDM1LjQtMTguNiw1MC4yYy0yLjcsMi4zLTUuMywxLjEtNC4xLTEuOUMyODIuNSwxNTUuNywyOTEuNCwxMzMuNCwyODcuMiwxMjguMXoiIGNsYXNzPSJzdDEiLz4mI3hhOwk8L2c+JiN4YTs8L2c+JiN4YTs8L3N2Zz4=;aspect=fixed;" vertex="1" parent="1">
          <mxGeometry x="39.75" y="640" width="50.25" height="30" as="geometry" />
        </mxCell>
        <mxCell id="ZGrB_38wMBr9Ecal8B5S-16" value="&lt;font color=&quot;#ffffff&quot;&gt;My website&lt;/font&gt;" style="sketch=0;outlineConnect=0;fontColor=#232F3E;gradientColor=none;fillColor=#FFFFFF;strokeColor=none;dashed=0;verticalLabelPosition=bottom;verticalAlign=top;align=center;html=1;fontSize=12;fontStyle=0;aspect=fixed;pointerEvents=1;shape=mxgraph.aws4.globe;" vertex="1" parent="1">
          <mxGeometry x="280" y="325" width="45" height="45" as="geometry" />
        </mxCell>
        <mxCell id="ZGrB_38wMBr9Ecal8B5S-21" value="DNS&lt;br&gt;Hosted&lt;br&gt;Zone" style="edgeStyle=orthogonalEdgeStyle;rounded=0;orthogonalLoop=1;jettySize=auto;html=1;entryX=0;entryY=0.5;entryDx=0;entryDy=0;entryPerimeter=0;" edge="1" parent="1" source="ZGrB_38wMBr9Ecal8B5S-16" target="ZGrB_38wMBr9Ecal8B5S-4">
          <mxGeometry relative="1" as="geometry" />
        </mxCell>
        <mxCell id="ZGrB_38wMBr9Ecal8B5S-37" value="Terraform (IaC)" style="shape=image;verticalLabelPosition=bottom;verticalAlign=top;imageAspect=0;image=data:image/svg+xml,PHN2ZyB4bWxuczp4bGluaz0iaHR0cDovL3d3dy53My5vcmcvMTk5OS94bGluayIgeG1sbnM9Imh0dHA6Ly93d3cudzMub3JnLzIwMDAvc3ZnIiBwcmVzZXJ2ZUFzcGVjdFJhdGlvPSJ4TWlkWU1pZCIgdmVyc2lvbj0iMS4xIiB2aWV3Qm94PSIwIDAgMjU2LjAwMDMwNTE3NTc4MTI1IDI5MC45MDk0MjM4MjgxMjUiIGhlaWdodD0iNzk5Ljc1MDk5MzM0MTkyNDQiIHdpZHRoPSI3MDMuNzgwOTA3Njk5NzQyMiI+JiN4YTsgICAgPGc+JiN4YTsgICAgICAgIDxwb2x5Z29uIHBvaW50cz0iMTc2LjQ4NTA1NyAxODguOTk0MTYyIDI1Ni4wMDAzMDIgMTQzLjEyNzQ0MiAyNTYuMDAwMzAyIDUxLjI0ODU0NTMgMTc2LjQ4NTA1NyA5Ny4yMTIyMzU4IiBmaWxsPSIjNDA0MEIyIj4mI3hhOyYjeGE7PC9wb2x5Z29uPiYjeGE7ICAgICAgICA8cGF0aCBmaWxsPSIjNUM0RUU1IiBkPSJNODguMjQyNTI4Myw1MS4yNDg1NDUzIEwxNjcuNzU3Nzc0LDk3LjIxMjIzNTggTDE2Ny43NTc3NzQsMTg4Ljk5NDE2MiBMODguMjQyNTI4MywxNDMuMDc4OTU3IE0wLDkxLjgzMDQxMTMgTDc5LjUxNTI0NTMsMTM3Ljc0NTYxNyBMNzkuNTE1MjQ1Myw0NS45MTUyMDU3IEwwLDAgTTg4LjI0MjUyODMsMjQ0Ljk5NDIyOCBMMTY3Ljc1Nzc3NCwyOTAuOTA5NDM0IEwxNjcuNzU3Nzc0LDE5OS4wNzkwMjMgTDg4LjI0MjUyODMsMTUzLjE2MzgxNyI+JiN4YTsmI3hhOzwvcGF0aD4mI3hhOyAgICA8L2c+JiN4YTs8L3N2Zz4=;aspect=fixed;" vertex="1" parent="1">
          <mxGeometry x="1040" y="319.12" width="50" height="56.77" as="geometry" />
        </mxCell>
        <mxCell id="ZGrB_38wMBr9Ecal8B5S-42" value="Terraform&lt;br&gt;Automation" style="edgeStyle=orthogonalEdgeStyle;rounded=0;orthogonalLoop=1;jettySize=auto;html=1;entryX=1;entryY=0.5;entryDx=0;entryDy=0;" edge="1" parent="1" source="ZGrB_38wMBr9Ecal8B5S-40" target="ZGrB_38wMBr9Ecal8B5S-37">
          <mxGeometry relative="1" as="geometry" />
        </mxCell>
        <mxCell id="ZGrB_38wMBr9Ecal8B5S-40" value="GitHub Action" style="shape=image;verticalLabelPosition=bottom;verticalAlign=top;imageAspect=0;image=data:image/svg+xml,PHN2ZyB4bWxucz0iaHR0cDovL3d3dy53My5vcmcvMjAwMC9zdmciIHZpZXdCb3g9IjAgMCAxMjggMTI4Ij48cGF0aCBkPSJNMjYuNjY2IDBDMTEuOTcgMCAwIDExLjk3IDAgMjYuNjY2YzAgMTIuODcgOS4xODEgMjMuNjUxIDIxLjMzNCAyNi4xM3YzNy44N2MwIDExLjc3IDkuNjggMjEuMzM0IDIxLjMzMiAyMS4zMzRoLjE5NWMxLjMwMiA5LjAyMyA5LjEgMTYgMTguNDczIDE2QzcxLjYxMiAxMjggODAgMTE5LjYxMiA4MCAxMDkuMzM0cy04LjM4OC0xOC42NjgtMTguNjY2LTE4LjY2OGMtOS4zNzIgMC0xNy4xNyA2Ljk3Ny0xOC40NzMgMTZoLS4xOTVjLTguNzM3IDAtMTYtNy4xNTItMTYtMTZWNjMuNzc5YTE4LjUxNCAxOC41MTQgMCAwIDAgMTMuMjQgNS41NTVoMi45NTVjMS4zMDMgOS4wMjMgOS4xIDE2IDE4LjQ3MyAxNiA5LjM3MiAwIDE3LjE2OS02Ljk3NyAxOC40Ny0xNmgxMS4wNTdjMS4zMDMgOS4wMjMgOS4xIDE2IDE4LjQ3MyAxNiAxMC4yNzggMCAxOC42NjYtOC4zOSAxOC42NjYtMTguNjY4QzEyOCA1Ni4zODggMTE5LjYxMiA0OCAxMDkuMzM0IDQ4Yy05LjM3MyAwLTE3LjE3MSA2Ljk3Ny0xOC40NzMgMTZINzkuODA1Yy0xLjMwMS05LjAyMy05LjA5OC0xNi0xOC40NzEtMTZzLTE3LjE3MSA2Ljk3Ny0xOC40NzMgMTZoLTIuOTU1Yy02LjQzMyAwLTExLjc5My00LjU4OS0xMi45ODgtMTAuNjcyIDE0LjU4LS4xMzYgMjYuNDE2LTEyLjA1IDI2LjQxNi0yNi42NjJDNTMuMzM0IDExLjk3IDQxLjM2MiAwIDI2LjY2NiAwem0wIDUuMzM0QTIxLjI5MiAyMS4yOTIgMCAwIDEgNDggMjYuNjY2IDIxLjI5NCAyMS4yOTQgMCAwIDEgMjYuNjY2IDQ4IDIxLjI5MiAyMS4yOTIgMCAwIDEgNS4zMzQgMjYuNjY2IDIxLjI5IDIxLjI5IDAgMCAxIDI2LjY2NiA1LjMzNHptLTUuMjE1IDcuNTQxQzE4LjY3IDEyLjg4OSAxNiAxNS4xMjMgMTYgMTguMTY2djE3LjA0M2MwIDQuMDQzIDQuNzA5IDYuNjYzIDguMTQ1IDQuNTMzbDEzLjYzNC04LjQ1NWMzLjI1Ny0yLjAyIDMuMjc0LTcuMDAyLjAzMi05LjA0NWwtMTMuNjM1LTguNTlhNS4wMjQgNS4wMjQgMCAwIDAtMi43MjUtLjc3N3ptLS4xMTcgNS4yOTEgMTMuNjM1IDguNTg4LTEzLjYzNSA4LjQ1NVYxOC4xNjZ6bTQwIDM1LjE2OGExMy4yOSAxMy4yOSAwIDAgMSAxMy4zMzIgMTMuMzMyQTEzLjI5MyAxMy4yOTMgMCAwIDEgNjEuMzM0IDgwIDEzLjI5NCAxMy4yOTQgMCAwIDEgNDggNjYuNjY2YTEzLjI5MyAxMy4yOTMgMCAwIDEgMTMuMzM0LTEzLjMzMnptNDggMGExMy4yOSAxMy4yOSAwIDAgMSAxMy4zMzIgMTMuMzMyQTEzLjI5MyAxMy4yOTMgMCAwIDEgMTA5LjMzNCA4MCAxMy4yOTQgMTMuMjk0IDAgMCAxIDk2IDY2LjY2NmExMy4yOTMgMTMuMjkzIDAgMCAxIDEzLjMzNC0xMy4zMzJ6bS00Mi41NjggNi45NTFhMi42NjcgMi42NjcgMCAwIDAtMS44ODcuNzhsLTYuMyA2LjI5NC0yLjA5My0yLjA4NGEyLjY2NyAyLjY2NyAwIDAgMC0zLjc3MS4wMDYgMi42NjcgMi42NjcgMCAwIDAgLjAwOCAzLjc3MmwzLjk3NCAzLjk2YTIuNjY3IDIuNjY3IDAgMCAwIDMuNzY2LS4wMDFsOC4xODUtOC4xNzRhMi42NjcgMi42NjcgMCAwIDAgLjAwMi0zLjc3MiAyLjY2NyAyLjY2NyAwIDAgMC0xLjg4NC0uNzh6bTQ4IDBhMi42NjcgMi42NjcgMCAwIDAtMS44ODcuNzhsLTYuMyA2LjI5NC0yLjA5My0yLjA4NGEyLjY2NyAyLjY2NyAwIDAgMC0zLjc3MS4wMDYgMi42NjcgMi42NjcgMCAwIDAgLjAwOCAzLjc3MmwzLjk3NCAzLjk2YTIuNjY3IDIuNjY3IDAgMCAwIDMuNzY2LS4wMDFsOC4xODUtOC4xNzRhMi42NjcgMi42NjcgMCAwIDAgLjAwMi0zLjc3MiAyLjY2NyAyLjY2NyAwIDAgMC0xLjg4NC0uNzh6TTYxLjMzNCA5NmExMy4yOTMgMTMuMjkzIDAgMCAxIDEzLjMzMiAxMy4zMzQgMTMuMjkgMTMuMjkgMCAwIDEtMTMuMzMyIDEzLjMzMkExMy4yOTMgMTMuMjkzIDAgMCAxIDQ4IDEwOS4zMzQgMTMuMjk0IDEzLjI5NCAwIDAgMSA2MS4zMzQgOTZ6TTU2IDEwNS4zMzRjLTIuMTkzIDAtNCAxLjgwNy00IDQgMCAyLjE5NSAxLjgwOCA0IDQgNHM0LTEuODA1IDQtNGMwLTIuMTkzLTEuODA3LTQtNC00em0xMC42NjYgMGMtMi4xOTMgMC00IDEuODA3LTQgNCAwIDIuMTk1IDEuODA4IDQgNCA0czQtMS44MDUgNC00YzAtMi4xOTMtMS44MDctNC00LTR6TTU2IDEwOGMuNzUgMCAxLjMzNC41ODUgMS4zMzQgMS4zMzQgMCAuNzUzLS41ODMgMS4zMzItMS4zMzQgMS4zMzItLjc1IDAtMS4zMzQtLjU4LTEuMzM0LTEuMzMyIDAtLjc1LjU4NS0xLjMzNCAxLjMzNC0xLjMzNHptMTAuNjY2IDBjLjc1IDAgMS4zMzQuNTg1IDEuMzM0IDEuMzM0IDAgLjc1My0uNTgzIDEuMzMyLTEuMzM0IDEuMzMyLS43NSAwLTEuMzMyLS41OC0xLjMzMi0xLjMzMiAwLS43NS41ODMtMS4zMzQgMS4zMzItMS4zMzR6IiBmaWxsPSIjMjA4OGZmIi8+PHBhdGggZD0iTTEwOS4zMzQgOTAuNjY2Yy05LjM4MyAwLTE3LjE4OCA2Ljk5My0xOC40NzcgMTYuMDMxYTIuNjY3IDIuNjY3IDAgMCAwLS4yNjUtLjAxMWwtMi43LjA5YTIuNjY3IDIuNjY3IDAgMCAwLTIuNTc4IDIuNzUxIDIuNjY3IDIuNjY3IDAgMCAwIDIuNzUyIDIuNTc4bDIuNy0uMDg3YTIuNjY3IDIuNjY3IDAgMCAwIC4wOTctLjAwNkM5Mi4xNyAxMjEuMDI5IDk5Ljk2NSAxMjggMTA5LjMzNCAxMjhjMTAuMjc4IDAgMTguNjY2LTguMzg4IDE4LjY2Ni0xOC42NjZzLTguMzg4LTE4LjY2OC0xOC42NjYtMTguNjY4em0wIDUuMzM0YTEzLjI5MyAxMy4yOTMgMCAwIDEgMTMuMzMyIDEzLjMzNCAxMy4yOSAxMy4yOSAwIDAgMS0xMy4zMzIgMTMuMzMyQTEzLjI5MyAxMy4yOTMgMCAwIDEgOTYgMTA5LjMzNCAxMy4yOTQgMTMuMjk0IDAgMCAxIDEwOS4zMzQgOTZ6IiBmaWxsPSIjNzliOGZmIi8+PC9zdmc+;aspect=fixed;" vertex="1" parent="1">
          <mxGeometry x="1190" y="322.5" width="50" height="50" as="geometry" />
        </mxCell>
        <mxCell id="ZGrB_38wMBr9Ecal8B5S-41" value="Resource&lt;br&gt;Provisioning&lt;br&gt;&amp;amp;&lt;br&gt;App Deployment" style="edgeStyle=orthogonalEdgeStyle;rounded=0;orthogonalLoop=1;jettySize=auto;html=1;entryX=1;entryY=0.5;entryDx=0;entryDy=0;entryPerimeter=0;" edge="1" parent="1" source="ZGrB_38wMBr9Ecal8B5S-37" target="ZGrB_38wMBr9Ecal8B5S-3">
          <mxGeometry relative="1" as="geometry" />
        </mxCell>
        <mxCell id="ZGrB_38wMBr9Ecal8B5S-44" value="CI/CD" style="edgeStyle=orthogonalEdgeStyle;rounded=0;orthogonalLoop=1;jettySize=auto;html=1;entryX=1;entryY=0.5;entryDx=0;entryDy=0;" edge="1" parent="1" source="ZGrB_38wMBr9Ecal8B5S-43" target="ZGrB_38wMBr9Ecal8B5S-40">
          <mxGeometry relative="1" as="geometry" />
        </mxCell>
        <mxCell id="ZGrB_38wMBr9Ecal8B5S-43" value="GitHub" style="dashed=0;outlineConnect=0;html=1;align=center;labelPosition=center;verticalLabelPosition=top;verticalAlign=bottom;shape=mxgraph.weblogos.github;aspect=fixed;" vertex="1" parent="1">
          <mxGeometry x="1330" y="322.51" width="50" height="50" as="geometry" />
        </mxCell>
        <mxCell id="ZGrB_38wMBr9Ecal8B5S-46" value="Push" style="edgeStyle=orthogonalEdgeStyle;rounded=0;orthogonalLoop=1;jettySize=auto;html=1;" edge="1" parent="1" source="ZGrB_38wMBr9Ecal8B5S-45" target="ZGrB_38wMBr9Ecal8B5S-43">
          <mxGeometry relative="1" as="geometry" />
        </mxCell>
        <mxCell id="ZGrB_38wMBr9Ecal8B5S-45" value="Dev" style="sketch=0;outlineConnect=0;fontColor=#FFFFFF;gradientColor=none;fillColor=#FFFFFF;strokeColor=none;dashed=0;verticalLabelPosition=bottom;verticalAlign=top;align=center;html=1;fontSize=12;fontStyle=0;aspect=fixed;pointerEvents=1;shape=mxgraph.aws4.user;" vertex="1" parent="1">
          <mxGeometry x="1150" y="460" width="50" height="50" as="geometry" />
        </mxCell>
      </root>
    </mxGraphModel>
  </diagram>
</mxfile>
